<?xml version="1.0" standalone="no"?><!DOCTYPE svg PUBLIC "-//W3C//DTD SVG 1.1//EN" "http://www.w3.org/Graphics/SVG/1.1/DTD/svg11.dtd"><svg t="1714844102309" class="icon" viewBox="0 0 1024 1024" version="1.1" xmlns="http://www.w3.org/2000/svg" p-id="11300" xmlns:xlink="http://www.w3.org/1999/xlink" width="200" height="200"><path d="M512 0C229.255011 0 0.017153 229.226422 0.017153 512.005718s229.237858 511.994282 511.982847 511.994282S1023.982847 794.773578 1023.982847 512.005718 794.790731 0 512 0zM365.704484 757.722263h-115.956893V372.548685h115.956893z m-58.744631-432.391133c-36.593891 0-60.997443-26.805025-60.231258-59.86532-0.766185-34.672712 23.637367-60.608633 61.020313-60.608632s61.020314 25.993098 61.752192 60.608632c0.034307 33.003116-24.403551 59.865319-62.541247 59.86532z m505.716142 432.436875H696.741973V544.334134c0-49.61903-16.741705-83.479815-58.72176-83.479815-32.019655 0-51.094221 22.871182-58.744631 44.89613-3.041867 7.090066-4.574236 18.914468-4.574236 29.926942v222.090614H458.790195V495.446982c0-48.029482-1.532369-88.99177-3.064739-122.898297h100.633202l5.340421 52.775253h2.287118c15.266514-24.38068 53.415646-61.420559 115.179273-61.42056 76.309699 0 133.476219 51.997632 133.476219 165.42726z" p-id="11301" fill="#ffffff"></path></svg>